<svg width="103" height="53" viewBox="0 0 103 53" fill="none" xmlns="http://www.w3.org/2000/svg">
<path d="M53.2128 15.1564C54.0092 15.2433 54.6463 15.3845 55.1242 15.58C55.6092 15.7755 55.9604 16.0325 56.1776 16.351C56.3948 16.6696 56.5034 17.0678 56.5034 17.5456C56.5034 18.0669 56.3332 18.523 55.993 18.914C55.6599 19.2977 55.1966 19.5946 54.6029 19.8045C54.0092 20.0072 53.3323 20.1086 52.5721 20.1086C51.725 20.1086 51.0082 20.0036 50.4218 19.7937C49.8353 19.5837 49.3973 19.305 49.1077 18.9574C48.8181 18.6027 48.6733 18.2153 48.6733 17.7954C48.6733 17.723 48.695 17.6651 48.7385 17.6217C48.7892 17.5782 48.8507 17.5565 48.9231 17.5565H51.1494C51.3014 17.5565 51.4245 17.6036 51.5186 17.6977C51.6417 17.8135 51.7793 17.8932 51.9313 17.9366C52.0834 17.9728 52.2969 17.9909 52.5721 17.9909C53.2599 17.9909 53.6038 17.8859 53.6038 17.676C53.6038 17.5891 53.5567 17.5167 53.4626 17.4588C53.3757 17.3936 53.2164 17.3393 52.9847 17.2959C52.7603 17.2452 52.4273 17.1945 51.9856 17.1438C50.9937 17.028 50.2335 16.7818 49.705 16.4053C49.1765 16.0216 48.9122 15.4822 48.9122 14.7872C48.9122 14.2949 49.0607 13.8605 49.3575 13.484C49.6543 13.1075 50.0743 12.8143 50.6173 12.6043C51.1675 12.3944 51.8046 12.2894 52.5286 12.2894C53.2816 12.2894 53.9404 12.4089 54.5051 12.6478C55.0699 12.8795 55.5006 13.1691 55.7975 13.5166C56.0943 13.8641 56.2427 14.2044 56.2427 14.5374C56.2427 14.6098 56.2174 14.6677 56.1667 14.7112C56.1233 14.7546 56.0617 14.7763 55.9821 14.7763H53.6472C53.5241 14.7763 53.4119 14.7329 53.3105 14.646C53.2309 14.5736 53.1368 14.5157 53.0282 14.4723C52.9196 14.4288 52.7531 14.4071 52.5286 14.4071C52.0435 14.4071 51.801 14.5085 51.801 14.7112C51.801 14.8198 51.8951 14.9067 52.0834 14.9718C52.2716 15.0297 52.6481 15.0913 53.2128 15.1564ZM63.2649 12.6912C63.3735 12.4957 63.5292 12.398 63.7319 12.398H65.7193C65.7989 12.398 65.8677 12.427 65.9256 12.4849C65.9835 12.5428 66.0125 12.6116 66.0125 12.6912V19.7068C66.0125 19.7864 65.9835 19.8552 65.9256 19.9131C65.8677 19.971 65.7989 20 65.7193 20H63.7536C63.674 20 63.6052 19.971 63.5473 19.9131C63.4894 19.8552 63.4604 19.7864 63.4604 19.7068V16.3402L62.6676 17.904C62.6459 17.9547 62.5952 18.0126 62.5156 18.0778C62.4359 18.1429 62.3346 18.1755 62.2115 18.1755H61.473C61.3499 18.1755 61.2486 18.1429 61.1689 18.0778C61.0893 18.0126 61.0386 17.9547 61.0169 17.904L60.2241 16.3402V19.7068C60.2241 19.7864 60.1952 19.8552 60.1372 19.9131C60.0793 19.971 60.0105 20 59.9309 20H57.9652C57.8856 20 57.8168 19.971 57.7589 19.9131C57.701 19.8552 57.672 19.7864 57.672 19.7068V12.6912C57.672 12.6116 57.701 12.5428 57.7589 12.4849C57.8168 12.427 57.8856 12.398 57.9652 12.398H59.9526C60.1553 12.398 60.311 12.4957 60.4196 12.6912L61.8423 15.2976L63.2649 12.6912ZM69.5052 19.6308C69.4111 19.8769 69.2482 20 69.0165 20H66.9639C66.8988 20 66.8409 19.9783 66.7902 19.9348C66.7467 19.8842 66.725 19.8262 66.725 19.7611L66.7359 19.6959L69.1034 12.7564C69.1323 12.6623 69.1866 12.579 69.2663 12.5066C69.3459 12.4342 69.4545 12.398 69.5921 12.398H72.6111C72.7487 12.398 72.8573 12.4342 72.9369 12.5066C73.0166 12.579 73.0709 12.6623 73.0998 12.7564L75.4673 19.6959L75.4782 19.7611C75.4782 19.8262 75.4528 19.8842 75.4022 19.9348C75.3587 19.9783 75.3044 20 75.2393 20H73.1867C72.955 20 72.7921 19.8769 72.698 19.6308L72.4265 18.8706H69.7767L69.5052 19.6308ZM71.1016 14.494L70.3305 16.7529H71.8727L71.1016 14.494ZM84.6072 19.6633C84.6217 19.6923 84.6289 19.7249 84.6289 19.7611C84.6289 19.8262 84.6036 19.8842 84.5529 19.9348C84.5095 19.9783 84.4552 20 84.39 20H81.9248C81.8234 20 81.7293 19.9747 81.6424 19.924C81.5628 19.8733 81.5049 19.8081 81.4687 19.7285L80.513 17.5782H79.6007V19.7068C79.6007 19.7864 79.5718 19.8552 79.5139 19.9131C79.4559 19.971 79.3872 20 79.3075 20H76.9618C76.8821 20 76.8133 19.971 76.7554 19.9131C76.6975 19.8552 76.6685 19.7864 76.6685 19.7068V12.6912C76.6685 12.6116 76.6975 12.5428 76.7554 12.4849C76.8133 12.427 76.8821 12.398 76.9618 12.398H81.1863C81.8379 12.398 82.4062 12.503 82.8913 12.7129C83.3836 12.9229 83.7601 13.227 84.0208 13.6252C84.2814 14.0234 84.4117 14.4904 84.4117 15.0261C84.4117 16.0108 84.0316 16.7239 83.2714 17.1655L84.6072 19.6633ZM80.9582 15.5691C81.1175 15.5691 81.2406 15.5184 81.3275 15.4171C81.4144 15.3085 81.4578 15.1745 81.4578 15.0153C81.4578 14.856 81.4144 14.7184 81.3275 14.6026C81.2478 14.4795 81.1248 14.418 80.9582 14.418H79.6007V15.5691H80.9582ZM93.2692 12.398C93.3489 12.398 93.4176 12.427 93.4756 12.4849C93.5335 12.5428 93.5624 12.6116 93.5624 12.6912V14.4397C93.5624 14.5193 93.5335 14.5881 93.4756 14.646C93.4176 14.7039 93.3489 14.7329 93.2692 14.7329H90.9343V19.7068C90.9343 19.7864 90.9054 19.8552 90.8474 19.9131C90.7895 19.971 90.7207 20 90.6411 20H88.4039C88.3243 20 88.2555 19.971 88.1976 19.9131C88.1397 19.8552 88.1107 19.7864 88.1107 19.7068V14.7329H85.7758C85.6962 14.7329 85.6274 14.7039 85.5695 14.646C85.5116 14.5881 85.4826 14.5193 85.4826 14.4397V12.6912C85.4826 12.6116 85.5116 12.5428 85.5695 12.4849C85.6274 12.427 85.6962 12.398 85.7758 12.398H93.2692ZM56.3622 23.398C56.4418 23.398 56.5106 23.427 56.5685 23.4849C56.6265 23.5428 56.6554 23.6116 56.6554 23.6912V25.4397C56.6554 25.5193 56.6265 25.5881 56.5685 25.646C56.5106 25.7039 56.4418 25.7329 56.3622 25.7329H54.0273V30.7068C54.0273 30.7864 53.9983 30.8552 53.9404 30.9131C53.8825 30.971 53.8137 31 53.7341 31H51.4969C51.4173 31 51.3485 30.971 51.2906 30.9131C51.2327 30.8552 51.2037 30.7864 51.2037 30.7068V25.7329H48.8688C48.7892 25.7329 48.7204 25.7039 48.6625 25.646C48.6045 25.5881 48.5756 25.5193 48.5756 25.4397V23.6912C48.5756 23.6116 48.6045 23.5428 48.6625 23.4849C48.7204 23.427 48.7892 23.398 48.8688 23.398H56.3622ZM65.3609 28.8823C65.4405 28.8823 65.5093 28.9113 65.5672 28.9692C65.6252 29.0271 65.6541 29.0959 65.6541 29.1755V30.7068C65.6541 30.7864 65.6252 30.8552 65.5672 30.9131C65.5093 30.971 65.4405 31 65.3609 31H58.4974C58.4177 31 58.349 30.971 58.291 30.9131C58.2331 30.8552 58.2042 30.7864 58.2042 30.7068V23.6912C58.2042 23.6116 58.2331 23.5428 58.291 23.4849C58.349 23.427 58.4177 23.398 58.4974 23.398H65.2523C65.3319 23.398 65.4007 23.427 65.4586 23.4849C65.5166 23.5428 65.5455 23.6116 65.5455 23.6912V25.2225C65.5455 25.3021 65.5166 25.3709 65.4586 25.4288C65.4007 25.4867 65.3319 25.5157 65.2523 25.5157H61.0278V26.1999H64.655C64.7346 26.1999 64.8034 26.2288 64.8613 26.2868C64.9193 26.3447 64.9482 26.4135 64.9482 26.4931V27.9049C64.9482 27.9845 64.9193 28.0533 64.8613 28.1112C64.8034 28.1692 64.7346 28.1981 64.655 28.1981H61.0278V28.8823H65.3609ZM70.0699 28.0678C70.0699 28.3646 70.1676 28.5927 70.3631 28.752C70.5658 28.9113 70.8373 28.9909 71.1776 28.9909C71.4817 28.9909 71.7061 28.9402 71.8509 28.8389C71.9957 28.7375 72.1188 28.5855 72.2202 28.3827C72.3143 28.1945 72.441 28.1004 72.6003 28.1004H74.946C75.0112 28.1004 75.0655 28.1257 75.1089 28.1764C75.1596 28.2198 75.185 28.2741 75.185 28.3393C75.185 28.7809 75.0365 29.2153 74.7397 29.6425C74.4429 30.0624 73.9904 30.4136 73.3822 30.6959C72.7813 30.971 72.0464 31.1086 71.1776 31.1086C70.4029 31.1086 69.7115 30.9928 69.1034 30.7611C68.5024 30.5222 68.0246 30.1602 67.6698 29.6751C67.3151 29.1828 67.1377 28.571 67.1377 27.8397V26.5583C67.1377 25.827 67.3151 25.2189 67.6698 24.7338C68.0246 24.2415 68.5024 23.8795 69.1034 23.6478C69.7115 23.4089 70.4029 23.2894 71.1776 23.2894C72.0464 23.2894 72.7813 23.4306 73.3822 23.7129C73.9904 23.9881 74.4429 24.3392 74.7397 24.7664C75.0365 25.1863 75.185 25.6171 75.185 26.0587C75.185 26.1239 75.1596 26.1818 75.1089 26.2325C75.0655 26.2759 75.0112 26.2976 74.946 26.2976H72.6003C72.441 26.2976 72.3143 26.2035 72.2202 26.0153C72.1188 25.8125 71.9957 25.6605 71.8509 25.5591C71.7061 25.4578 71.4817 25.4071 71.1776 25.4071C70.8373 25.4071 70.5658 25.4867 70.3631 25.646C70.1676 25.8053 70.0699 26.0334 70.0699 26.3302V28.0678ZM83.9122 23.398C83.9918 23.398 84.0606 23.427 84.1185 23.4849C84.1764 23.5428 84.2054 23.6116 84.2054 23.6912V30.7068C84.2054 30.7864 84.1764 30.8552 84.1185 30.9131C84.0606 30.971 83.9918 31 83.9122 31H81.675C81.5954 31 81.5266 30.971 81.4687 30.9131C81.4107 30.8552 81.3818 30.7864 81.3818 30.7068V28.3936H79.2098V30.7068C79.2098 30.7864 79.1808 30.8552 79.1229 30.9131C79.065 30.971 78.9962 31 78.9166 31H76.6794C76.5998 31 76.531 30.9747 76.4731 30.924C76.4151 30.8661 76.3862 30.7937 76.3862 30.7068V23.6912C76.3862 23.6116 76.4151 23.5428 76.4731 23.4849C76.531 23.427 76.5998 23.398 76.6794 23.398H78.9166C78.9962 23.398 79.065 23.427 79.1229 23.4849C79.1808 23.5428 79.2098 23.6116 79.2098 23.6912V25.9175H81.3818V23.6912C81.3818 23.6116 81.4107 23.5428 81.4687 23.4849C81.5266 23.427 81.5954 23.398 81.675 23.398H83.9122ZM56.3622 34.398C56.4418 34.398 56.5106 34.427 56.5685 34.4849C56.6265 34.5428 56.6554 34.6116 56.6554 34.6912V36.4397C56.6554 36.5193 56.6265 36.5881 56.5685 36.646C56.5106 36.7039 56.4418 36.7329 56.3622 36.7329H54.0273V41.7068C54.0273 41.7864 53.9983 41.8552 53.9404 41.9131C53.8825 41.971 53.8137 42 53.7341 42H51.4969C51.4173 42 51.3485 41.971 51.2906 41.9131C51.2327 41.8552 51.2037 41.7864 51.2037 41.7068V36.7329H48.8688C48.7892 36.7329 48.7204 36.7039 48.6625 36.646C48.6045 36.5881 48.5756 36.5193 48.5756 36.4397V34.6912C48.5756 34.6116 48.6045 34.5428 48.6625 34.4849C48.7204 34.427 48.7892 34.398 48.8688 34.398H56.3622ZM65.8822 38.8615C65.8822 39.9692 65.5129 40.7873 64.7745 41.3158C64.0432 41.8443 63.0658 42.1086 61.8423 42.1086C60.6187 42.1086 59.6377 41.8443 58.8992 41.3158C58.168 40.7873 57.8023 39.9619 57.8023 38.8397V37.5583C57.8023 36.8198 57.9761 36.208 58.3236 35.7229C58.6784 35.2306 59.1598 34.8686 59.768 34.6369C60.3762 34.4052 61.0676 34.2894 61.8423 34.2894C62.6169 34.2894 63.3047 34.4052 63.9057 34.6369C64.5138 34.8686 64.9953 35.227 65.35 35.7121C65.7048 36.1971 65.8822 36.8053 65.8822 37.5365V38.8615ZM60.7345 39.0678C60.7345 39.3646 60.8323 39.5927 61.0278 39.752C61.2305 39.9113 61.502 39.9909 61.8423 39.9909C62.1825 39.9909 62.4504 39.9113 62.6459 39.752C62.8486 39.5855 62.95 39.3538 62.95 39.0569V37.3411C62.95 37.0442 62.8486 36.8162 62.6459 36.6569C62.4504 36.4904 62.1825 36.4071 61.8423 36.4071C61.502 36.4071 61.2305 36.4867 61.0278 36.646C60.8323 36.8053 60.7345 37.0334 60.7345 37.3302V39.0678ZM75.1089 38.8615C75.1089 39.9692 74.7397 40.7873 74.0012 41.3158C73.27 41.8443 72.2926 42.1086 71.069 42.1086C69.8455 42.1086 68.8644 41.8443 68.126 41.3158C67.3947 40.7873 67.0291 39.9619 67.0291 38.8397V37.5583C67.0291 36.8198 67.2029 36.208 67.5504 35.7229C67.9051 35.2306 68.3866 34.8686 68.9948 34.6369C69.6029 34.4052 70.2943 34.2894 71.069 34.2894C71.8437 34.2894 72.5315 34.4052 73.1324 34.6369C73.7406 34.8686 74.222 35.227 74.5768 35.7121C74.9316 36.1971 75.1089 36.8053 75.1089 37.5365V38.8615ZM69.9613 39.0678C69.9613 39.3646 70.059 39.5927 70.2545 39.752C70.4572 39.9113 70.7287 39.9909 71.069 39.9909C71.4093 39.9909 71.6772 39.9113 71.8727 39.752C72.0754 39.5855 72.1767 39.3538 72.1767 39.0569V37.3411C72.1767 37.0442 72.0754 36.8162 71.8727 36.6569C71.6772 36.4904 71.4093 36.4071 71.069 36.4071C70.7287 36.4071 70.4572 36.4867 70.2545 36.646C70.059 36.8053 69.9613 37.0334 69.9613 37.3302V39.0678ZM83.8361 39.7737C83.9158 39.7737 83.9846 39.8027 84.0425 39.8606C84.1004 39.9185 84.1294 39.9873 84.1294 40.0669V41.7068C84.1294 41.7864 84.1004 41.8552 84.0425 41.9131C83.9846 41.971 83.9158 42 83.8361 42H77.4939C77.4143 42 77.3455 41.971 77.2876 41.9131C77.2296 41.8552 77.2007 41.7864 77.2007 41.7068V34.6912C77.2007 34.6116 77.2296 34.5428 77.2876 34.4849C77.3455 34.427 77.4143 34.398 77.4939 34.398H79.8397C79.9193 34.398 79.9881 34.427 80.046 34.4849C80.1039 34.5428 80.1329 34.6116 80.1329 34.6912V39.7737H83.8361ZM90.1198 37.1564C90.9162 37.2433 91.5533 37.3845 92.0312 37.58C92.5163 37.7755 92.8674 38.0325 93.0846 38.351C93.3018 38.6696 93.4104 39.0678 93.4104 39.5456C93.4104 40.0669 93.2403 40.523 92.9 40.914C92.5669 41.2977 92.1036 41.5946 91.5099 41.8045C90.9162 42.0072 90.2393 42.1086 89.4791 42.1086C88.632 42.1086 87.9152 42.0036 87.3288 41.7937C86.7424 41.5837 86.3043 41.305 86.0147 40.9574C85.7251 40.6027 85.5803 40.2153 85.5803 39.7954C85.5803 39.723 85.6021 39.6651 85.6455 39.6217C85.6962 39.5782 85.7577 39.5565 85.8301 39.5565H88.0564C88.2085 39.5565 88.3315 39.6036 88.4257 39.6977C88.5487 39.8135 88.6863 39.8932 88.8383 39.9366C88.9904 39.9728 89.204 39.9909 89.4791 39.9909C90.1669 39.9909 90.5108 39.8859 90.5108 39.676C90.5108 39.5891 90.4637 39.5167 90.3696 39.4588C90.2827 39.3936 90.1234 39.3393 89.8918 39.2959C89.6673 39.2452 89.3343 39.1945 88.8926 39.1438C87.9008 39.028 87.1406 38.7818 86.612 38.4053C86.0835 38.0216 85.8193 37.4822 85.8193 36.7872C85.8193 36.2949 85.9677 35.8605 86.2645 35.484C86.5614 35.1075 86.9813 34.8143 87.5243 34.6043C88.0745 34.3944 88.7116 34.2894 89.4356 34.2894C90.1886 34.2894 90.8474 34.4089 91.4122 34.6478C91.9769 34.8795 92.4077 35.1691 92.7045 35.5166C93.0013 35.8641 93.1498 36.2044 93.1498 36.5374C93.1498 36.6098 93.1244 36.6677 93.0737 36.7112C93.0303 36.7546 92.9688 36.7763 92.8891 36.7763H90.5542C90.4311 36.7763 90.3189 36.7329 90.2176 36.646C90.1379 36.5736 90.0438 36.5157 89.9352 36.4723C89.8266 36.4288 89.6601 36.4071 89.4356 36.4071C88.9506 36.4071 88.708 36.5085 88.708 36.7112C88.708 36.8198 88.8021 36.9067 88.9904 36.9718C89.1786 37.0297 89.5551 37.0913 90.1198 37.1564Z" fill="#2C2C34"/>
<path fill-rule="evenodd" clip-rule="evenodd" d="M9 15.8696C9 13.1802 11.1802 11 13.8696 11C16.559 11 18.7391 13.1802 18.7391 15.8696V20.7391H13.8696C11.1802 20.7391 9 18.559 9 15.8696ZM9 27C9 24.3106 11.1802 22.1304 13.8696 22.1304H18.7391V27C18.7391 29.6894 16.559 31.8696 13.8696 31.8696C11.1802 31.8696 9 29.6894 9 27ZM13.8696 33.2609C11.1802 33.2609 9 35.441 9 38.1304C9 40.8198 11.1802 43 13.8696 43C16.559 43 18.7391 40.8198 18.7391 38.1304V33.2609H13.8696ZM20.1304 15.8696C20.1304 13.1802 22.3106 11 25 11C27.6894 11 29.8696 13.1802 29.8696 15.8696C29.8696 18.559 27.6894 20.7391 25 20.7391H20.1304V15.8696ZM25 22.1304C27.6894 22.1304 29.8696 24.3106 29.8696 27V31.8696H25C22.3106 31.8696 20.1304 29.6894 20.1304 27V22.1304H25ZM20.1304 38.1304C20.1304 35.441 22.3106 33.2609 25 33.2609H29.8696V38.1304C29.8696 40.8198 27.6894 43 25 43C22.3106 43 20.1304 40.8198 20.1304 38.1304ZM36.1304 11C33.441 11 31.2609 13.1802 31.2609 15.8696V20.7391H36.1304C38.8198 20.7391 41 18.559 41 15.8696C41 13.1802 38.8198 11 36.1304 11ZM31.2609 27C31.2609 24.3106 33.441 22.1304 36.1304 22.1304C38.8198 22.1304 41 24.3106 41 27C41 29.6894 38.8198 31.8696 36.1304 31.8696H31.2609V27ZM36.1304 33.2609H31.2609V38.1304C31.2609 40.8198 33.441 43 36.1304 43C38.8198 43 41 40.8198 41 38.1304C41 35.441 38.8198 33.2609 36.1304 33.2609Z" fill="url(#paint0_linear_1_40)"/>
<defs>
<linearGradient id="paint0_linear_1_40" x1="44.6129" y1="46.6129" x2="10.5484" y2="12.5484" gradientUnits="userSpaceOnUse">
<stop stop-color="#4845F0"/>
<stop offset="0.848958" stop-color="#4CFFDF"/>
</linearGradient>
</defs>
</svg>
