<svg width="45" height="45" viewBox="0 0 45 45" fill="none" xmlns="http://www.w3.org/2000/svg">
<rect width="45" height="45" rx="2.25" fill="#FC3666"/>
<path d="M7.74359 6.4359H29.5385C30.2607 6.4359 30.8462 7.02137 30.8462 7.74359V29.5385C30.8462 30.2607 30.2607 30.8462 29.5385 30.8462H7.74359C7.02137 30.8462 6.4359 30.2607 6.4359 29.5385V7.74359C6.4359 7.02137 7.02137 6.4359 7.74359 6.4359Z" stroke="white" stroke-width="0.871795"/>
<path fill-rule="evenodd" clip-rule="evenodd" d="M23.4359 30.4103V37.3846C23.4359 38.3476 24.2165 39.1282 25.1795 39.1282H38.2564C39.2194 39.1282 40 38.3476 40 37.3846V24.3077C40 23.3447 39.2194 22.5641 38.2564 22.5641H30.4103V30.4103H23.4359Z" fill="white"/>
<path d="M35.7656 31.9048H35.0632L35.0607 34.687L32.0293 31.6557L31.5311 32.1538L34.5625 35.1852L31.7802 35.1827V35.8901H35.7656V31.9048Z" fill="#E0595B"/>
<path d="M14.7249 24.4872C14.5439 24.4872 14.399 24.4389 14.2904 24.3423C14.1938 24.2337 14.1275 24.101 14.0912 23.9441L11.9368 12.3392C11.9368 12.303 11.9308 12.2728 11.9187 12.2487C11.9187 12.2246 11.9187 12.2064 11.9187 12.1944C11.9187 12.0858 11.9549 11.9952 12.0274 11.9228C12.1118 11.8504 12.2024 11.8142 12.2989 11.8142H13.8921C14.1938 11.8142 14.3628 11.9349 14.399 12.1763L15.9017 20.3775L17.5311 15.073C17.5673 14.9764 17.6276 14.8798 17.7121 14.7833C17.8087 14.6747 17.9475 14.6204 18.1285 14.6204H19.1061C19.2992 14.6204 19.438 14.6747 19.5225 14.7833C19.607 14.8798 19.6613 14.9764 19.6855 15.073L21.333 20.3594L22.8356 12.1763C22.8718 11.9349 23.0408 11.8142 23.3425 11.8142H24.9357C25.0323 11.8142 25.1168 11.8504 25.1892 11.9228C25.2616 11.9952 25.2978 12.0858 25.2978 12.1944C25.2978 12.2064 25.2978 12.2246 25.2978 12.2487C25.2978 12.2728 25.2918 12.303 25.2797 12.3392L23.1253 23.9441C23.1011 24.101 23.0348 24.2337 22.9261 24.3423C22.8175 24.4389 22.6727 24.4872 22.4916 24.4872H21.2786C21.0976 24.4872 20.9528 24.4389 20.8441 24.3423C20.7476 24.2458 20.6812 24.1432 20.645 24.0346L18.6173 17.9877L16.5896 24.0346C16.5414 24.1432 16.4689 24.2458 16.3724 24.3423C16.2758 24.4389 16.131 24.4872 15.9379 24.4872H14.7249Z" fill="white"/>
</svg>
