<svg width="45" height="45" viewBox="0 0 45 45" fill="none" xmlns="http://www.w3.org/2000/svg">
<rect width="45" height="45" rx="2.25" fill="#E0595B"/>
<path d="M7.74359 6.4359H29.5385C30.2607 6.4359 30.8462 7.02137 30.8462 7.74359V29.5385C30.8462 30.2607 30.2607 30.8462 29.5385 30.8462H7.74359C7.02137 30.8462 6.4359 30.2607 6.4359 29.5385V7.74359C6.4359 7.02137 7.02137 6.4359 7.74359 6.4359Z" stroke="white" stroke-width="0.871795"/>
<path fill-rule="evenodd" clip-rule="evenodd" d="M23.4359 30.4103V37.3846C23.4359 38.3476 24.2165 39.1282 25.1795 39.1282H38.2564C39.2194 39.1282 40 38.3476 40 37.3846V24.3077C40 23.3447 39.2194 22.5641 38.2564 22.5641H30.4103V30.4103H23.4359Z" fill="white"/>
<path d="M35.7656 31.9048H35.0631L35.0607 34.687L32.0293 31.6557L31.5311 32.1538L34.5625 35.1852L31.7802 35.1827V35.8901H35.7656V31.9048Z" fill="#E0595B"/>
<g clip-path="url(#clip0_109_116)">
<path d="M25.5064 23.9808V13.3013C25.5064 12.4622 24.8199 11.7756 23.9808 11.7756H13.3013C12.4622 11.7756 11.7756 12.4622 11.7756 13.3013V23.9808C11.7756 24.8199 12.4622 25.5064 13.3013 25.5064H23.9808C24.8199 25.5064 25.5064 24.8199 25.5064 23.9808ZM16.2763 20.1514L17.8782 22.0813L20.2429 19.0377C20.3955 18.8394 20.7006 18.8394 20.8532 19.0453L23.5307 22.6153C23.7214 22.867 23.5383 23.2256 23.2256 23.2256H14.0794C13.759 23.2256 13.5835 22.8594 13.7819 22.6077L15.6813 20.1667C15.8262 19.9683 16.1161 19.9607 16.2763 20.1514V20.1514Z" fill="white"/>
</g>
<defs>
<clipPath id="clip0_109_116">
<rect width="18.3077" height="18.3077" fill="white" transform="translate(9.48718 9.48718)"/>
</clipPath>
</defs>
</svg>
