<svg width="45" height="45" viewBox="0 0 45 45" fill="none" xmlns="http://www.w3.org/2000/svg">
<rect width="45" height="45" rx="2.25" fill="#4CE682"/>
<path d="M15.5161 14.6882H38.1219C38.8285 14.6882 39.4014 15.2611 39.4014 15.9677V37.2939C39.4014 38.0006 38.8285 38.5735 38.1219 38.5735H16.7957C16.089 38.5735 15.5161 38.0006 15.5161 37.2939V14.6882Z" stroke="white" stroke-width="0.853047"/>
<path fill-rule="evenodd" clip-rule="evenodd" d="M7.41218 5.73118C6.46993 5.73118 5.70609 6.49503 5.70609 7.43727V20.233C5.70609 21.1752 6.46993 21.9391 7.41218 21.9391H15.9427V14.2616H21.914V7.43728C21.914 6.49503 21.1501 5.73118 20.2079 5.73118H7.41218Z" fill="white"/>
<path d="M11.7993 8.89964H11.1119L11.1095 11.6221L8.14335 8.65591L7.65589 9.14337L10.6221 12.1095L7.89962 12.1071V12.7993H11.7993V8.89964Z" fill="#4CE682"/>
<path d="M36.016 33.0461V20.043C36.016 19.0213 35.1801 18.1854 34.1584 18.1854H21.1553C20.1336 18.1854 19.2977 19.0213 19.2977 20.043V33.0461C19.2977 34.0678 20.1336 34.9037 21.1553 34.9037H34.1584C35.1801 34.9037 36.016 34.0678 36.016 33.0461ZM24.7776 28.3836L26.7281 30.7334L29.6073 27.0275C29.7931 26.786 30.1646 26.786 30.3504 27.0368L33.6104 31.3836C33.8426 31.6901 33.6197 32.1266 33.2389 32.1266H22.1027C21.7126 32.1266 21.499 31.6808 21.7405 31.3743L24.0531 28.4021C24.2296 28.1606 24.5826 28.1514 24.7776 28.3836V28.3836Z" fill="white"/>
</svg>
