<svg width="45" height="45" viewBox="0 0 45 45" fill="none" xmlns="http://www.w3.org/2000/svg">
<rect width="45" height="45" rx="2.25" fill="#3D99F5"/>
<path d="M15.5714 14.7143H38.2857C38.9958 14.7143 39.5714 15.2899 39.5714 16V37.4286C39.5714 38.1387 38.9958 38.7143 38.2857 38.7143H16.8571C16.1471 38.7143 15.5714 38.1387 15.5714 37.4286V14.7143Z" stroke="white" stroke-width="0.857143"/>
<path fill-rule="evenodd" clip-rule="evenodd" d="M7.42857 5.71428C6.4818 5.71428 5.71429 6.4818 5.71429 7.42857V20.2857C5.71429 21.2325 6.4818 22 7.42857 22H16V14.2857H22V7.42857C22 6.4818 21.2325 5.71428 20.2857 5.71428H7.42857Z" fill="white"/>
<path d="M13.1429 8.57143H12.3371L12.3343 11.7629L8.85714 8.28571L8.28571 8.85714L11.7629 12.3343L8.57143 12.3314V13.1429H13.1429V8.57143Z" fill="#3D99F5"/>
<path d="M23.7211 32.7143C23.5431 32.7143 23.4007 32.6668 23.2939 32.5719C23.199 32.4651 23.1337 32.3346 23.0981 32.1803L20.9799 20.7705C20.9799 20.7349 20.974 20.7052 20.9621 20.6815C20.9621 20.6578 20.9621 20.64 20.9621 20.6281C20.9621 20.5213 20.9977 20.4323 21.0689 20.3611C21.152 20.2899 21.241 20.2543 21.3359 20.2543H22.9023C23.199 20.2543 23.3651 20.373 23.4007 20.6103L24.8781 28.6737L26.4801 23.4583C26.5157 23.3634 26.575 23.2684 26.6581 23.1735C26.753 23.0667 26.8895 23.0133 27.0675 23.0133H28.0287C28.2186 23.0133 28.355 23.0667 28.4381 23.1735C28.5212 23.2684 28.5746 23.3634 28.5983 23.4583L30.2181 28.6559L31.6955 20.6103C31.7311 20.373 31.8972 20.2543 32.1939 20.2543H33.7603C33.8552 20.2543 33.9383 20.2899 34.0095 20.3611C34.0807 20.4323 34.1163 20.5213 34.1163 20.6281C34.1163 20.64 34.1163 20.6578 34.1163 20.6815C34.1163 20.7052 34.1104 20.7349 34.0985 20.7705L31.9803 32.1803C31.9566 32.3346 31.8913 32.4651 31.7845 32.5719C31.6777 32.6668 31.5353 32.7143 31.3573 32.7143H30.1647C29.9867 32.7143 29.8443 32.6668 29.7375 32.5719C29.6426 32.477 29.5773 32.3761 29.5417 32.2693L27.5481 26.3241L25.5545 32.2693C25.507 32.3761 25.4358 32.477 25.3409 32.5719C25.246 32.6668 25.1036 32.7143 24.9137 32.7143H23.7211Z" fill="white"/>
</svg>
